<svg xmlns="http://www.w3.org/2000/svg" width="1024" height="1024" viewBox="0 0 1024 1024">
<g>
<path d="M 940.75 551.50 C940.06,551.75 842.38,552.07 723.68,552.22 C527.24,552.48 507.73,552.36 506.41,550.91 C505.19,549.56 505.15,547.75 506.13,539.13 C506.77,533.53 507.07,528.74 506.80,528.47 C506.54,528.20 458.44,527.54 399.91,527.00 C151.06,524.68 83.59,523.93 83.13,523.46 C82.86,523.19 82.43,511.72 82.19,497.98 L 81.74 473.00 L 278.12 473.01 C417.78,473.01 480.19,472.67 494.21,471.83 C509.70,470.90 514.50,470.91 516.61,471.87 L 519.30 473.09 L 517.99 496.00 L 524.25 496.02 C527.69,496.03 566.95,496.47 611.50,497.00 C656.05,497.52 738.40,498.40 794.50,498.95 C850.60,499.50 906.74,500.25 919.25,500.61 L 942.00 501.27 L 942.00 526.17 C942.00,545.18 941.70,551.17 940.75,551.50 Z" fill="rgb(21,21,18)"/>
<path d="M 0.00 512.00 L 0.00 0.00 L 512.00 0.00 L 1024.00 0.00 L 1024.00 512.00 L 1024.00 1024.00 L 512.00 1024.00 L 0.00 1024.00 L 0.00 512.00 ZM 940.75 551.50 C941.70,551.17 942.00,545.18 942.00,526.17 L 942.00 501.27 L 919.25 500.61 C906.74,500.25 850.60,499.50 794.50,498.95 C738.40,498.40 656.05,497.52 611.50,497.00 C566.95,496.47 527.69,496.03 524.25,496.02 L 517.99 496.00 L 518.65 484.55 L 519.30 473.09 L 516.61 471.87 C514.50,470.91 509.70,470.90 494.21,471.83 C480.19,472.67 417.78,473.01 278.12,473.01 L 81.74 473.00 L 82.19 497.98 C82.43,511.72 82.86,523.19 83.13,523.46 C83.59,523.93 151.06,524.68 399.91,527.00 C458.44,527.54 506.54,528.20 506.80,528.47 C507.07,528.74 506.77,533.53 506.13,539.13 C505.15,547.75 505.19,549.56 506.41,550.91 C507.73,552.36 527.24,552.48 723.68,552.22 C842.38,552.07 940.06,551.75 940.75,551.50 Z" fill="rgb(243,244,237)"/>
</g>
</svg>